<?xml version="1.0" encoding="UTF-8" standalone="no"?>
<!-- Created with Inkscape (http://www.inkscape.org/) -->

<svg
   xmlns:osb="http://www.openswatchbook.org/uri/2009/osb"
   xmlns:dc="http://purl.org/dc/elements/1.1/"
   xmlns:cc="http://creativecommons.org/ns#"
   xmlns:rdf="http://www.w3.org/1999/02/22-rdf-syntax-ns#"
   xmlns:svg="http://www.w3.org/2000/svg"
   xmlns="http://www.w3.org/2000/svg"
   xmlns:xlink="http://www.w3.org/1999/xlink"
   xmlns:sodipodi="http://sodipodi.sourceforge.net/DTD/sodipodi-0.dtd"
   xmlns:inkscape="http://www.inkscape.org/namespaces/inkscape"
   width="792pt"
   height="612pt"
   id="svg4515"
   version="1.1"
   inkscape:version="0.48.4 r9939"
   sodipodi:docname="mct_launcher_logo.svg"
   inkscape:export-filename="/home/user/Downloads/mct_launcher_logo.png"
   inkscape:export-xdpi="82"
   inkscape:export-ydpi="82">
  <defs
     id="defs4517">
    <marker
       inkscape:stockid="Arrow1Lstart"
       orient="auto"
       refY="0.0"
       refX="0.0"
       id="Arrow1Lstart"
       style="overflow:visible">
      <path
         id="path5817"
         d="M 0.0,0.0 L 5.0,-5.0 L -12.5,0.0 L 5.0,5.0 L 0.0,0.0 z "
         style="fill-rule:evenodd;stroke:#000000;stroke-width:1.0pt"
         transform="scale(0.8) translate(12.5,0)" />
    </marker>
    <linearGradient
       id="linearGradient5267"
       osb:paint="solid">
      <stop
         style="stop-color:#000000;stop-opacity:1;"
         offset="0"
         id="stop5269" />
    </linearGradient>
    <linearGradient
       inkscape:collect="always"
       id="linearGradient5257"
       osb:paint="gradient">
      <stop
         style="stop-color:#000000;stop-opacity:1;"
         offset="0"
         id="stop5259" />
      <stop
         style="stop-color:#000000;stop-opacity:0;"
         offset="1"
         id="stop5261" />
    </linearGradient>
    <filter
       id="filter4663"
       style="color-interpolation-filters:sRGB;"
       inkscape:label="Drop Shadow">
      <feFlood
         id="feFlood4665"
         flood-opacity="0.5"
         flood-color="rgb(0,0,0)"
         result="flood" />
      <feComposite
         id="feComposite4667"
         in2="SourceGraphic"
         in="flood"
         operator="in"
         result="composite1" />
      <feGaussianBlur
         id="feGaussianBlur4669"
         in="composite"
         stdDeviation="2"
         result="blur" />
      <feOffset
         id="feOffset4671"
         dx="2.5"
         dy="2.5"
         result="offset" />
      <feComposite
         id="feComposite4673"
         in2="offset"
         in="SourceGraphic"
         operator="over"
         result="fbSourceGraphic" />
      <feColorMatrix
         result="fbSourceGraphicAlpha"
         in="fbSourceGraphic"
         values="0 0 0 -1 0 0 0 0 -1 0 0 0 0 -1 0 0 0 0 1 0"
         id="feColorMatrix3033" />
      <feFlood
         id="feFlood3035"
         flood-opacity="0.8"
         flood-color="rgb(0,0,0)"
         result="flood"
         in="fbSourceGraphic" />
      <feComposite
         id="feComposite3037"
         in2="fbSourceGraphic"
         in="flood"
         operator="in"
         result="composite1" />
      <feGaussianBlur
         id="feGaussianBlur3039"
         in="composite"
         stdDeviation="10"
         result="blur" />
      <feOffset
         id="feOffset3041"
         dx="0"
         dy="0"
         result="offset" />
      <feComposite
         id="feComposite3043"
         in2="offset"
         in="fbSourceGraphic"
         operator="over"
         result="composite2" />
    </filter>
    <linearGradient
       inkscape:collect="always"
       xlink:href="#SVGID_1_"
       id="linearGradient4709"
       gradientUnits="userSpaceOnUse"
       gradientTransform="matrix(0.9872,-0.1594,0.1594,0.9872,-48.2283,27.8856)"
       x1="131.29491"
       y1="230.0479"
       x2="190.8232"
       y2="285.9408" />
    <linearGradient
       gradientTransform="matrix(0.9872,-0.1594,0.1594,0.9872,-48.2283,27.8856)"
       y2="285.9408"
       x2="190.8232"
       y1="230.0479"
       x1="131.29491"
       gradientUnits="userSpaceOnUse"
       id="SVGID_1_">
      <stop
         id="stop4647"
         style="stop-color:#F5F5F5"
         offset="0" />
      <stop
         id="stop4649"
         style="stop-color:#DBDBDB"
         offset="1" />
    </linearGradient>
    <linearGradient
       y2="285.9408"
       x2="190.8232"
       y1="230.0479"
       x1="131.29491"
       gradientTransform="matrix(0.9872,-0.1594,0.1594,0.9872,-164.47758,35.3651)"
       gradientUnits="userSpaceOnUse"
       id="linearGradient4735"
       xlink:href="#SVGID_1_"
       inkscape:collect="always" />
    <linearGradient
       inkscape:collect="always"
       xlink:href="#SVGID_1_"
       id="linearGradient4820"
       gradientUnits="userSpaceOnUse"
       gradientTransform="matrix(-0.9940904,0.10842732,-0.10842732,-0.9940904,338.82067,747.69754)"
       x1="131.29491"
       y1="230.0479"
       x2="190.8232"
       y2="285.9408" />
  </defs>
  <sodipodi:namedview
     inkscape:document-units="in"
     pagecolor="#ffffff"
     bordercolor="#666666"
     borderopacity="1.0"
     inkscape:pageopacity="0.0"
     inkscape:pageshadow="2"
     inkscape:zoom="0.86831672"
     inkscape:cx="447.97552"
     inkscape:cy="342.77955"
     inkscape:current-layer="layer1"
     id="namedview4519"
     showgrid="false"
     inkscape:window-width="1278"
     inkscape:window-height="1003"
     inkscape:window-x="0"
     inkscape:window-y="19"
     inkscape:window-maximized="0" />
  <metadata
     id="metadata4521">
    <rdf:RDF>
      <cc:Work
         rdf:about="">
        <dc:format>image/svg+xml</dc:format>
        <dc:type
           rdf:resource="http://purl.org/dc/dcmitype/StillImage" />
        <dc:title></dc:title>
      </cc:Work>
    </rdf:RDF>
  </metadata>
  <g
     inkscape:label="Layer 1"
     inkscape:groupmode="layer"
     id="layer1">
    <rect
       style="fill:#e6e6fa;fill-opacity:1;stroke:#000000;stroke-width:4.19380283;stroke-linejoin:miter;stroke-miterlimit:4;stroke-opacity:0.52348998;stroke-dasharray:none;filter:url(#filter4960)"
       id="rect4274"
       width="975.04889"
       height="726.15479"
       x="8.6623735"
       y="21.116381"
       inkscape:export-filename="/home/user/Downloads/mct_logo.png"
       inkscape:export-xdpi="82.89473"
       inkscape:export-ydpi="82.89473"
       ry="207.12041" />
    <g
       id="g3854"
       transform="matrix(1.6601943,0,0,1.6601943,-69.576093,46.564695)"
       inkscape:export-filename="/home/user/Downloads/new_launcher.png"
       inkscape:export-xdpi="76.705925"
       inkscape:export-ydpi="76.705925"
       style="filter:url(#filter4663)">
      <g
         transform="matrix(4.3170925,0,0,4.3170925,-1122.8196,-277.51299)"
         id="text3003"
         style="font-size:40px;font-style:normal;font-variant:normal;font-weight:normal;font-stretch:normal;line-height:125%;letter-spacing:0px;word-spacing:0px;fill:#000080;fill-opacity:1;stroke:none;font-family:Sans;-inkscape-font-specification:ClearlyU PUA">
        <path
           sodipodi:nodetypes="cccccccscccccccccc"
           inkscape:connector-curvature="0"
           id="path3015"
           style="font-weight:bold;fill:#000080;-inkscape-font-specification:Sans Bold"
           d="m 281.84265,100.42768 9.57031,0 6.64062,11.43858 6.67969,-15.605464 26.97591,-8.448426 0.007,4.858054 c -8.05254,1.710127 -14.93463,4.548512 -17.25891,12.388336 -0.60848,2.08556 -0.89487,4.1389 -0.86564,6.16069 0.0292,2.02178 0.37408,4.012 1.02809,5.97131 1.99394,7.03026 9.35299,9.40648 17.06006,11.52937 l 0.0145,5.30944 -24.51984,-8.60862 0,-21.32812 -6.71875,15.72265 -4.76563,0 -6.71875,-11.55577 0,14.8884 -7.1289,0" />
        <path
           sodipodi:nodetypes="csscscccccscssssccc"
           inkscape:connector-curvature="0"
           id="path3017"
           style="font-weight:bold;fill:#000080;-inkscape-font-specification:Sans Bold"
           d="m 341.90721,123.7824 c -1.38024,0.71615 -2.81904,1.25651 -4.31641,1.62109 -1.49742,0.36459 -3.05992,0.54688 -4.6875,0.54688 -4.85678,0 -8.70444,-1.35417 -11.54297,-4.0625 -2.83854,-2.72135 -4.25781,-6.40624 -4.25781,-11.05469 0,-4.66144 1.41927,-8.34633 4.25781,-11.054681 2.83853,-2.721326 6.68619,-4.082001 11.54297,-4.082031 1.62758,3e-5 3.19008,0.182321 4.6875,0.546875 1.49737,0.364612 2.93617,0.904976 4.31641,1.621094 l 0,6.035153 c -1.39326,-0.9505 -2.76695,-1.64715 -4.1211,-2.08985 -1.35418,-0.44271 -2.77997,-0.66404 -4.27734,-0.66406 -2.68231,2e-5 -4.79168,0.8594 -6.32813,2.57813 -1.53647,1.71877 -2.30469,4.08855 -2.30468,7.10937 -1e-5,3.00782 0.76821,5.3711 2.30468,7.08984 1.53645,1.71876 3.64582,2.57813 6.32813,2.57813 1.49737,0 2.92315,-0.22135 4.27734,-0.66406 1.35414,-0.44271 2.72784,-1.13932 4.1211,-2.08985 l 0,6.03516" />
        <path
           sodipodi:nodetypes="ccccccccc"
           inkscape:connector-curvature="0"
           id="path3019"
           style="font-weight:bold;fill:#000080;-inkscape-font-specification:Sans Bold"
           d="m 334.40952,87.548231 26.875,0 0,4.882539 -9.66797,0 0,41.32394 -7.51953,0 0,-41.32394 -9.6875,0 0,-4.882539" />
      </g>
      <path
         sodipodi:nodetypes="ccsccsc"
         id="path6738"
         d="M 495.98241,31.20253 478.2762,58.539037 c 17.41424,12.247548 32.87405,28.171006 45.22063,47.544803 50.58169,79.37214 29.87769,186.47619 -46.24832,239.21487 l 17.50504,27.46456 C 585.42937,309.94492 610.08756,182.38631 549.83813,87.84397 535.13265,64.768265 516.72349,45.791345 495.98241,31.20253 z"
         style="fill:#008080;fill-opacity:1;fill-rule:evenodd;stroke:none;display:inline"
         inkscape:connector-curvature="0" />
      <path
         sodipodi:nodetypes="ccsccsc"
         style="fill:#008080;fill-opacity:1;fill-rule:evenodd;stroke:none;display:inline"
         d="m 461.09166,85.20709 -12.10642,18.69121 c 11.90684,8.37421 22.47742,19.26181 30.91928,32.50852 34.58513,54.27034 20.42882,127.50226 -31.62206,163.56207 l 11.96905,18.77888 C 522.2507,275.79585 539.1105,188.57823 497.91538,123.93546 487.86044,108.1575 475.27327,95.18213 461.09166,85.20709 z"
         id="path6750"
         inkscape:connector-curvature="0" />
      <path
         sodipodi:nodetypes="ccsccsc"
         id="path6752"
         d="m 432.35813,129.68144 -7.49495,11.57152 c 7.37148,5.1844 13.91555,11.92486 19.14186,20.12565 21.41131,33.59838 12.64727,78.93553 -19.57693,101.25982 l 7.4099,11.62576 c 38.38318,-26.591 48.82096,-80.58661 23.31735,-120.60644 -6.22482,-9.76796 -14.01747,-17.80082 -22.79723,-23.97631 z"
         style="fill:#008080;fill-opacity:1;fill-rule:evenodd;stroke:none;display:inline"
         inkscape:connector-curvature="0" />
    </g>
  </g>
</svg>
