<?xml version="1.0" encoding="UTF-8" standalone="no"?>
<!-- Generator: Adobe Illustrator 16.0.4, SVG Export Plug-In . SVG Version: 6.00 Build 0)  -->

<svg
   xmlns:dc="http://purl.org/dc/elements/1.1/"
   xmlns:cc="http://creativecommons.org/ns#"
   xmlns:rdf="http://www.w3.org/1999/02/22-rdf-syntax-ns#"
   xmlns:svg="http://www.w3.org/2000/svg"
   xmlns="http://www.w3.org/2000/svg"
   xmlns:sodipodi="http://sodipodi.sourceforge.net/DTD/sodipodi-0.dtd"
   xmlns:inkscape="http://www.inkscape.org/namespaces/inkscape"
   version="1.1"
   id="Ebene_1"
   x="0px"
   y="0px"
   width="321.745"
   height="205.623"
   viewBox="0 0 321.74498 205.623"
   enable-background="new 0 0 595.28 841.89"
   xml:space="preserve"
   inkscape:version="0.48.4 r9939"
   sodipodi:docname="2014-12-31 MCT-Logo.svg"><metadata
     id="metadata3075"><rdf:RDF><cc:Work
         rdf:about=""><dc:format>image/svg+xml</dc:format><dc:type
           rdf:resource="http://purl.org/dc/dcmitype/StillImage" /><dc:title></dc:title></cc:Work></rdf:RDF></metadata><defs
     id="defs3073" /><sodipodi:namedview
     pagecolor="#ffffff"
     bordercolor="#666666"
     borderopacity="1"
     objecttolerance="10"
     gridtolerance="10"
     guidetolerance="10"
     inkscape:pageopacity="0"
     inkscape:pageshadow="2"
     inkscape:window-width="1918"
     inkscape:window-height="1179"
     id="namedview3071"
     showgrid="false"
     fit-margin-top="0"
     fit-margin-left="0"
     fit-margin-right="0"
     fit-margin-bottom="0"
     inkscape:zoom="2.2758317"
     inkscape:cx="143.19766"
     inkscape:cy="129.09916"
     inkscape:window-x="0"
     inkscape:window-y="19"
     inkscape:window-maximized="0"
     inkscape:current-layer="Ebene_1" /><g
     id="g3051"
     transform="translate(-137.59501,-317.481)"><path
       d="m 459.34,511.765 c 0,6.235 -5.103,11.339 -11.339,11.339 H 148.934 c -6.236,0 -11.339,-5.104 -11.339,-11.339 V 328.819 c 0,-6.236 5.103,-11.338 11.339,-11.338 h 299.067 c 6.236,0 11.339,5.103 11.339,11.338 v 182.946 z"
       id="path3053"
       inkscape:connector-curvature="0"
       style="fill:#3c3c3b" /></g><path
     d="m 34.557991,93.062 h 22.08 l 11.76,31.919 c 0.721,2.16 1.399,4.402 2.041,6.721 0.639,2.322 1.319,4.641 2.039,6.961 h 0.48 c 0.72,-2.32 1.398,-4.639 2.04,-6.961 0.64,-2.318 1.319,-4.561 2.04,-6.721 l 11.279,-31.919 h 22.079999 v 78 H 91.676991 v -23.039 c 0,-1.998 0.1,-4.201 0.3,-6.6 0.199,-2.4 0.42,-4.861 0.66,-7.381 0.24,-2.52 0.52,-4.98 0.84,-7.379 0.319,-2.4 0.601,-4.561 0.84,-6.48 h -0.479 l -6.479,18.719 -9.601,25.801 h -11.04 l -9.6,-25.801 -6.24,-18.719 h -0.48 c 0.24,1.92 0.52,4.08 0.84,6.48 0.319,2.398 0.601,4.859 0.841,7.379 0.239,2.52 0.459,4.98 0.659,7.381 0.199,2.398 0.301,4.602 0.301,6.6 v 23.039 h -18.48 v -78 z"
     id="path3055"
     inkscape:connector-curvature="0"
     style="fill:#ffffff" /><path
     d="m 154.51699,172.503 c -4.962,0 -9.701,-0.822 -14.221,-2.461 -4.521,-1.639 -8.48,-4.119 -11.88,-7.439 -3.401,-3.318 -6.101,-7.48 -8.101,-12.48 -2,-4.998 -3,-10.818 -3,-17.459 0,-6.561 1.039,-12.379 3.121,-17.461 2.079,-5.08 4.859,-9.359 8.34,-12.839 3.48,-3.48 7.479,-6.139 12,-7.98 4.519,-1.84 9.258,-2.76 14.22,-2.76 5.199,0 9.84,1.02 13.92,3.061 4.08,2.039 7.519,4.461 10.32,7.26 l -10.8,13.199 c -1.92,-1.68 -3.9,-3.059 -5.94,-4.139 -2.04,-1.08 -4.38,-1.621 -7.021,-1.621 -2.32,0 -4.5,0.521 -6.539,1.561 -2.041,1.041 -3.84,2.52 -5.4,4.439 -1.56,1.919 -2.801,4.281 -3.721,7.08 -0.92,2.801 -1.379,5.961 -1.379,9.48 0,7.361 1.539,13.002 4.619,16.92 3.079,3.92 7.141,5.881 12.181,5.881 3.039,0 5.739,-0.66 8.1,-1.98 2.358,-1.32 4.38,-2.898 6.061,-4.74 l 10.8,12.959 c -3.36,3.84 -7.221,6.721 -11.58,8.641 -4.361,1.917 -9.061,2.878 -14.1,2.878 z"
     id="path3057"
     inkscape:connector-curvature="0"
     style="fill:#ffffff" /><path
     d="m 184.03599,93.062 v 17.281 h 20.64 v 60.719 h 20.641 v -78 h -41.281 z"
     id="path3059"
     inkscape:connector-curvature="0"
     style="fill:#ffffff" /><polygon
     points="366.271,418.018 366.271,427.824 383.552,427.824 383.552,410.543 373.746,410.543 "
     id="polygon3061"
     style="fill:#ffffff"
     transform="translate(-137.59501,-317.481)" /><g
     id="g3063"
     transform="translate(-137.59501,-317.481)"><path
       d="m 435.395,405.944 h 7 c 0,-30.064 -24.459,-54.523 -54.523,-54.523 v 7 c 26.203,0 47.523,21.319 47.523,47.523 z"
       id="path3065"
       inkscape:connector-curvature="0"
       style="fill:#5cb030" /><path
       d="m 387.871,367.011 v 7 c 17.607,0 31.933,14.325 31.933,31.933 h 7 c 0,-21.467 -17.465,-38.933 -38.933,-38.933 z"
       id="path3067"
       inkscape:connector-curvature="0"
       style="fill:#5cb030" /><path
       d="m 387.871,382.602 v 7 c 9.012,0 16.343,7.331 16.343,16.342 h 7 c 0,-12.871 -10.472,-23.342 -23.343,-23.342 z"
       id="path3069"
       inkscape:connector-curvature="0"
       style="fill:#5cb030" /></g></svg>